<svg width="458" height="408" viewBox="0 0 458 408" fill="none" xmlns="http://www.w3.org/2000/svg">
<g filter="url(#filter0_d_462_29)">
<mask id="path-1-inside-1_462_29" fill="white">
<path d="M44 80C44 57.9086 61.9086 40 84 40H374C396.091 40 414 57.9086 414 80V320C414 342.091 396.091 360 374 360H84C61.9086 360 44 342.091 44 320V80Z"/>
</mask>
<path d="M44 80C44 57.9086 61.9086 40 84 40H374C396.091 40 414 57.9086 414 80V320C414 342.091 396.091 360 374 360H84C61.9086 360 44 342.091 44 320V80Z" fill="white"/>
<path d="M44 80C44 52.3858 66.3858 30 94 30H364C391.614 30 414 52.3858 414 80C414 63.4315 396.091 50 374 50H84C61.9086 50 44 63.4315 44 80ZM44 80M414 360H44H414M414 360M44 360V40V360M44 360M414 40V360V40" fill="url(#paint0_linear_462_29)" mask="url(#path-1-inside-1_462_29)"/>
</g>
<defs>
<filter id="filter0_d_462_29" x="0" y="0" width="458" height="408" filterUnits="userSpaceOnUse" color-interpolation-filters="sRGB">
<feFlood flood-opacity="0" result="BackgroundImageFix"/>
<feColorMatrix in="SourceAlpha" type="matrix" values="0 0 0 0 0 0 0 0 0 0 0 0 0 0 0 0 0 0 127 0" result="hardAlpha"/>
<feMorphology radius="18" operator="dilate" in="SourceAlpha" result="effect1_dropShadow_462_29"/>
<feOffset dy="4"/>
<feGaussianBlur stdDeviation="13"/>
<feComposite in2="hardAlpha" operator="out"/>
<feColorMatrix type="matrix" values="0 0 0 0 0 0 0 0 0 0 0 0 0 0 0 0 0 0 0.05 0"/>
<feBlend mode="normal" in2="BackgroundImageFix" result="effect1_dropShadow_462_29"/>
<feBlend mode="normal" in="SourceGraphic" in2="effect1_dropShadow_462_29" result="shape"/>
</filter>
<linearGradient id="paint0_linear_462_29" x1="414" y1="200" x2="44" y2="200" gradientUnits="userSpaceOnUse">
<stop stop-color="#A66A3F"/>
<stop offset="0.5" stop-color="#E4BCA0"/>
<stop offset="1" stop-color="#A66A3F"/>
</linearGradient>
</defs>
</svg>
